Hanif_Shallow_2_5_grf.mot
version=1
nRows=53
nColumns=19
inDegrees=yes
endheader
time	right_ground_force_vx	right_ground_force_vy	right_ground_force_vz	right_ground_force_px	right_ground_force_py	right_ground_force_pz	right_ground_torque_x	right_ground_torque_y	right_ground_torque_z	left_ground_force_vx	left_ground_force_vy	left_ground_force_vz	left_ground_force_px	left_ground_force_py	left_ground_force_pz	left_ground_torque_x	left_ground_torque_y	left_ground_torque_z
2.200000	2.465740	258.344000	56.935400	0.195948	0.000000	-1.451150	-14.161700	1.124620	-0.879664	-2.492310	282.007000	-60.243700	0.198061	0.000000	-0.952686	14.026700	-1.672960	-0.188034
2.205000	2.316650	257.358000	56.665300	0.195334	0.000000	-1.451220	-14.089600	1.296810	-1.001550	-3.160300	281.190000	-59.825500	0.198181	0.000000	-0.952887	14.047700	-1.729610	-0.132965
2.210000	3.196410	259.713000	56.223100	0.194579	0.000000	-1.452330	-13.929800	1.297670	-1.230120	-3.418990	279.075000	-59.265700	0.198778	0.000000	-0.953232	14.039900	-1.644900	0.029424
2.215000	2.772810	257.926000	56.422600	0.194639	0.000000	-1.450940	-14.192300	1.345650	-1.187980	-4.003300	280.750000	-59.206900	0.198682	0.000000	-0.952691	13.976100	-1.660200	0.005527
2.220000	3.594690	257.717000	56.130600	0.194086	0.000000	-1.451390	-14.062900	1.343740	-1.346650	-4.417220	280.440000	-58.137400	0.197980	0.000000	-0.952569	13.928800	-1.652840	-0.202822
2.225000	3.521750	257.188000	56.001700	0.193884	0.000000	-1.452050	-13.864200	1.296370	-1.406550	-4.428650	277.568000	-57.963500	0.197923	0.000000	-0.952730	13.830500	-1.586750	-0.224342
2.230000	3.491400	257.200000	55.429200	0.193748	0.000000	-1.452050	-13.866400	1.290540	-1.445200	-5.302580	278.502000	-57.608000	0.197157	0.000000	-0.952807	13.904500	-1.635570	-0.432769
2.235000	3.150540	256.401000	55.701300	0.192400	0.000000	-1.452400	-13.731900	1.422050	-1.768400	-6.194550	274.973000	-56.521000	0.196949	0.000000	-0.952613	13.683000	-1.677170	-0.466610
2.240000	3.232400	253.110000	54.991300	0.192293	0.000000	-1.452590	-13.506800	1.422880	-1.771240	-7.597260	272.168000	-55.399600	0.197069	0.000000	-0.952354	13.484700	-1.651240	-0.418219
2.245000	2.726460	254.085000	54.459900	0.192053	0.000000	-1.451980	-13.716000	1.418190	-1.839580	-8.549410	271.323000	-54.393100	0.196741	0.000000	-0.952992	13.620400	-1.537460	-0.525856
2.250000	3.011370	251.621000	53.574100	0.191283	0.000000	-1.452460	-13.462200	1.409710	-2.027000	-7.999550	269.625000	-54.181000	0.196255	0.000000	-0.952263	13.336700	-1.635550	-0.642736
2.255000	3.384540	250.918000	53.623200	0.191420	0.000000	-1.452130	-13.505000	1.455060	-1.979100	-5.161380	266.218000	-54.364400	0.195279	0.000000	-0.952223	13.139600	-1.832560	-0.883073
2.260000	3.955340	249.417000	53.176400	0.191413	0.000000	-1.452060	-13.444300	1.332930	-2.000390	-3.082200	262.880000	-54.477400	0.194741	0.000000	-0.952472	13.025800	-1.894410	-1.017760
2.265000	4.343790	248.939000	52.965300	0.192240	0.000000	-1.451260	-13.614100	1.391550	-1.773670	-2.540550	262.211000	-54.403500	0.193901	0.000000	-0.952313	12.947900	-2.004550	-1.226260
2.270000	3.939250	248.523000	52.544200	0.190876	0.000000	-1.451980	-13.415000	1.375340	-2.123160	-2.266780	260.732000	-54.111800	0.194907	0.000000	-0.953873	13.279700	-1.938200	-0.959018
2.275000	3.844730	246.280000	52.071800	0.192770	0.000000	-1.451180	-13.489400	1.282670	-1.633660	-2.617260	258.266000	-53.293200	0.193598	0.000000	-0.953683	13.107700	-1.985220	-1.286710
2.280000	2.520260	246.987000	51.351200	0.192813	0.000000	-1.451790	-13.382500	1.137040	-1.643870	-3.081420	258.801000	-52.649200	0.194856	0.000000	-0.953619	13.120100	-1.779190	-0.992706
2.285000	1.808750	244.841000	49.904500	0.192890	0.000000	-1.451600	-13.313400	1.153020	-1.598110	-4.289010	257.766000	-51.325800	0.195080	0.000000	-0.953597	13.071100	-1.770440	-0.922673
2.290000	0.309657	240.492000	49.236000	0.192908	0.000000	-1.450100	-13.441600	0.992595	-1.577330	-6.037650	253.529000	-50.104400	0.195439	0.000000	-0.954031	12.977900	-1.608110	-0.822783
2.295000	-0.526312	236.649000	47.826400	0.193644	0.000000	-1.450300	-13.183500	0.866041	-1.384540	-7.734750	249.640000	-48.374800	0.194682	0.000000	-0.955036	13.045600	-1.643000	-0.981093
2.300000	-1.280790	235.405000	47.058000	0.195285	0.000000	-1.449370	-13.334300	0.692124	-1.001380	-7.197640	247.295000	-47.867700	0.194963	0.000000	-0.953476	12.532400	-1.594320	-0.913412
2.305000	-1.480170	233.385000	46.713800	0.194094	0.000000	-1.450380	-12.984000	0.678387	-1.281340	-5.605800	244.547000	-47.510200	0.193296	0.000000	-0.952767	12.207300	-1.646890	-1.327050
2.310000	-2.320350	231.169000	45.692200	0.195375	0.000000	-1.448070	-13.394300	0.448934	-0.995721	-4.193730	240.663000	-47.378400	0.193350	0.000000	-0.954081	12.321600	-1.719000	-1.281830
2.315000	-2.886700	225.691000	44.685800	0.194674	0.000000	-1.448030	-13.088500	0.490991	-1.118790	-4.383090	237.339000	-45.693400	0.192474	0.000000	-0.954285	12.201900	-1.740750	-1.473890
2.320000	-3.375350	222.048000	43.279500	0.194830	0.000000	-1.447000	-13.108100	0.447731	-1.065610	-4.584250	233.987000	-45.167700	0.192497	0.000000	-0.954509	12.083100	-1.661750	-1.454780
2.325000	-3.182470	218.128000	42.297400	0.195635	0.000000	-1.446430	-13.000700	0.411960	-0.871247	-4.395500	229.272000	-44.261900	0.192230	0.000000	-0.954847	11.915900	-1.624100	-1.490260
2.330000	-3.456220	213.024000	41.818800	0.194060	0.000000	-1.446200	-12.743300	0.302036	-1.214300	-5.075210	224.565000	-43.449700	0.191941	0.000000	-0.955165	11.748500	-1.593010	-1.518150
2.335000	-2.721730	210.705000	40.595500	0.192489	0.000000	-1.447660	-12.293500	0.277216	-1.557390	-5.289100	221.036000	-41.375100	0.192509	0.000000	-0.955599	11.661900	-1.518650	-1.377520
2.340000	-1.840260	207.727000	40.250400	0.192598	0.000000	-1.447320	-12.192000	0.362122	-1.504170	-6.607030	213.937000	-39.841100	0.190705	0.000000	-0.955403	11.255700	-1.472370	-1.718800
2.345000	-0.707749	205.407000	40.197700	0.191360	0.000000	-1.447990	-11.915400	0.429788	-1.750480	-6.676150	208.228000	-38.569200	0.191151	0.000000	-0.955803	11.039600	-1.379030	-1.585200
2.350000	0.994382	200.283000	39.696900	0.190237	0.000000	-1.446350	-11.946500	0.373990	-1.969840	-5.461850	204.574000	-37.825800	0.191647	0.000000	-0.957054	11.094000	-1.370180	-1.459380
2.355000	1.610990	197.042000	38.874300	0.190806	0.000000	-1.447200	-11.586500	0.402994	-1.821380	-3.195880	201.254000	-38.068400	0.190326	0.000000	-0.955519	10.588300	-1.367260	-1.726320
2.360000	0.966917	195.218000	37.952900	0.189666	0.000000	-1.446990	-11.521200	0.337323	-2.039110	-2.607480	198.891000	-37.060400	0.189410	0.000000	-0.957185	10.792900	-1.470150	-1.879140
2.365000	-0.349514	190.158000	37.302100	0.188176	0.000000	-1.448200	-10.990700	0.232941	-2.285270	-1.991660	194.982000	-36.054500	0.190085	0.000000	-0.956673	10.476900	-1.396550	-1.721420
2.370000	-0.921146	187.235000	36.410700	0.189208	0.000000	-1.447650	-10.925100	0.203942	-2.047000	-2.489350	193.464000	-35.356200	0.190149	0.000000	-0.956921	10.445500	-1.276080	-1.711660
2.375000	-2.122370	183.033000	35.963700	0.189033	0.000000	-1.446110	-10.961400	0.167049	-2.027070	-2.707220	189.913000	-34.684300	0.190965	0.000000	-0.957595	10.384600	-1.301830	-1.508330
2.380000	-2.275590	177.419000	35.561300	0.189441	0.000000	-1.446020	-10.637500	-0.074096	-1.936040	-1.419050	190.970000	-34.981300	0.190254	0.000000	-0.956765	10.275000	-1.281980	-1.674830
2.385000	-2.391370	174.609000	35.394300	0.189398	0.000000	-1.447450	-10.219600	-0.063525	-1.911840	0.551454	194.211000	-36.979300	0.192935	0.000000	-0.956050	10.300200	-1.287130	-1.182410
2.390000	-2.159650	170.065000	35.402000	0.188980	0.000000	-1.445780	-10.237600	-0.065141	-1.941870	2.680900	201.732000	-39.706000	0.194560	0.000000	-0.958012	11.083100	-1.459890	-0.881588
2.395000	-0.744413	167.797000	36.063500	0.190295	0.000000	-1.445080	-10.221100	0.011357	-1.691420	3.313030	205.381000	-41.889800	0.197601	0.000000	-0.959372	11.563200	-1.191800	-0.308134
2.400000	0.869171	165.962000	36.314900	0.191167	0.000000	-1.444570	-10.197600	-0.048875	-1.558470	2.037890	211.336000	-43.530100	0.199846	0.000000	-0.959464	11.925000	-0.925322	0.132893
2.405000	1.545990	164.020000	36.542000	0.191809	0.000000	-1.444010	-10.171500	0.019193	-1.427190	-0.274042	212.157000	-43.262400	0.200833	0.000000	-0.959373	11.961000	-0.841765	0.358905
2.410000	-0.133152	160.053000	36.117100	0.192154	0.000000	-1.444050	-9.915510	-0.127960	-1.346690	-2.674140	216.714000	-43.929200	0.201178	0.000000	-0.958868	12.118300	-0.683273	0.434554
2.415000	-1.683660	154.693000	35.085800	0.191576	0.000000	-1.443420	-9.676210	-0.158285	-1.382130	-2.929120	218.287000	-44.283600	0.203343	0.000000	-0.958769	12.186300	-0.620919	0.918948
2.420000	-1.456110	152.243000	34.832200	0.192550	0.000000	-1.446040	-9.122850	-0.388009	-1.262450	-1.803690	222.673000	-46.298500	0.204714	0.000000	-0.960432	12.795900	-0.590569	1.239280
2.425000	-0.994626	151.185000	34.713100	0.192496	0.000000	-1.441540	-9.741830	-0.374080	-1.265520	-0.453364	226.653000	-47.938600	0.205116	0.000000	-0.960328	12.995500	-0.658428	1.356100
2.430000	-0.082973	155.172000	36.256700	0.194180	0.000000	-1.444510	-9.541260	-0.148586	-0.985898	0.752438	232.722000	-50.580500	0.207584	0.000000	-0.960417	13.358600	-0.759461	2.004060
2.435000	0.862696	158.972000	37.193200	0.196690	0.000000	-1.443520	-9.934620	-0.207047	-0.615988	1.780010	239.609000	-52.404100	0.208122	0.000000	-0.960020	13.654800	-0.728283	2.176370
2.440000	2.476140	165.412000	39.615500	0.200106	0.000000	-1.440870	-10.779400	-0.201993	-0.068380	2.892850	246.192000	-54.060400	0.209716	0.000000	-0.960444	14.129000	-0.766950	2.639360
2.445000	3.890730	174.740000	42.310400	0.202286	0.000000	-1.438580	-11.788400	-0.187569	0.314015	1.751140	248.517000	-54.662000	0.210774	0.000000	-0.961560	14.543800	-0.850491	2.971550
2.450000	3.451960	180.718000	43.418200	0.206416	0.000000	-1.439130	-12.089700	-0.274292	1.105080	0.966528	248.043000	-54.863600	0.211479	0.000000	-0.961185	14.426800	-0.883723	3.169560
2.455000	1.887220	186.142000	43.048800	0.208763	0.000000	-1.436790	-12.884600	-0.424925	1.589890	0.019505	246.829000	-54.454300	0.210886	0.000000	-0.962360	14.651600	-0.873568	3.010190
2.460000	0.733832	188.525000	43.011500	0.209134	0.000000	-1.437140	-12.983100	-0.485336	1.689360	-0.861910	243.262000	-53.893200	0.211488	0.000000	-0.962602	14.504800	-0.989873	3.162420
